<?xml version="1.0" encoding="utf-8"?>
<svg xmlns="http://www.w3.org/2000/svg" viewBox="0 0 1024 1024">
  <style>
    g{fill:#444}
    @media(prefers-color-scheme:dark){g{fill:#bbb}}
  </style>
  <g fill="#fc6">
    <path d="M289 366c1 5 5 6 9 7l13 1 12 1 29 3 33-1 7 1 24-1h26l32-1c6-1 11-2 16-1 5 0 10 2 13 6l29 30 10 13 11 17 21 35 7 12 1-1c1-5 3-11-1-17l-5-10-18-21c-7-7-13-14-18-22-8-10-11-23-17-35-2-6-5-11-10-15-6-4-8-8-9-14-2-14-3-28-1-41 2-21 1-42 5-63l11-57 1-8 2-10 3-15-120 6-124 196 4 1 4 4zM682 642l10-2c3 1 4-1 5-3l1-5 1-12 1-15h-1l-3 3c-6 9-11 19-19 28l-3 5 7 1h1z"/>
    <path d="m928 133-98 6 2 46v31l-2 14v17c-1 14-2 28 1 42 1 4 0 9-2 12-3 5-7 10-9 16l-11 28-7 18-10 22-7 17-8 23-14 47c-7 20-16 38-25 57l-15 29-6 18-6 33-2 21c0 3 1 4 4 3 6-2 11-4 15-7 3-2 6-1 7 1 2 2 2 5 2 7l1 4 12 19 5 10c4 6 1 14-5 19s-13 8-21 11l-9 2c-5 1-10 1-12-4-3-5-5-10-6-16-2-7-5-14-10-20-1-1-3-3-5-3l-9-2c-4-1-9-3-14-2h-3c-2-2-3-1-4 0l-8 5c-6 4-14 7-22 7-5 0-10 1-13 6 0 2-2 3-4 4-8 5-16 11-24 14-7 4-15 5-23 6-5 1-11 0-17-1-15-2-27-10-39-20l-3-3c-6-4-13-7-20-9l-56-19c-3-1-6-3-6-8-1-4-3-6-8-7h-7c-4-1-9 2-10 6l-2 16c-3 14-4 28-10 41l-8 18-2 6c-7 12-12 24-17 37l-1 7c-1 2-1 3 2 3l3 3 2 15v3l7 33c1 8-1 12-9 14l-8 2-3 2-22 12-13 10-13 14-6 4-6 4h-2l-10-3-12-7c-5-3-6-8-2-12a93 93 0 0 0 14-15l4-5 14-32c4-7 8-14 9-22l4-18c4-12 6-26 8-39l5-39 10-64 3-28 1-13c1-6 3-13 7-17 5-7 13-12 20-15 10-5 21-7 32-5 5 1 10 1 15-2 4-3 9-4 14-3l12 4c3 2 7 2 11 2l24 4 8 1 29 8 4 1c3 0 5-2 4-5l-3-10-7-25c-6-20-13-40-23-60-2-5-6-10-12-11l-25-2c-17 1-34-1-51-4s-34-8-51-13l-33-8c-10-2-21-1-31-2l-2 2c-2 2-3 2-5 1-5-2-9-2-13 1-6 3-13 5-21 4l-2 1c-4 1-9 1-12-2l-85 88L0 488a512 512 0 0 0 874 307 512 512 0 0 0 54-662z"/>
    <path d="m593 133-2 13c-2 7-6 13-12 17-3 3-7 5-9 9a65 65 0 0 0-12 31c-2 8-4 17-4 25l4 47v7c3 15 3 29 0 44 0 5 0 5 5 8l2 1c11 5 17 15 22 26l3 8c1 5 6 8 9 10l18 13 2 2 1-4c2-12 8-22 15-31 3-4 8-7 12-10 12-11 26-11 40-4 13 7 23 18 25 35 1 0 2-1 2-3 2-4 6-6 10-9 2-3 6-4 9-7l3-3 2-3 3-14 10-25c4-7 9-13 15-18 5-5 5-9 4-14-3-15-3-29 1-42l6-26 10-47c2-8 3-15 2-23 0-10-4-18-9-25L674 78l-82 52 1 1v2z"/>
  </g>
</svg>