<svg xmlns="http://www.w3.org/2000/svg" xml:space="preserve" viewBox="0 0 620 164">
<g fill="#ccc">
<path d="M199.6 55h-29.4v15h26v10.4h-26v20.4h-13v-56h42.4V55zm4.7 17.7c0-16.7 13-29 30.7-29 17.6 0 30.7 12.2 30.7 29 0 16.7-13 29-30.7 29s-30.7-12.4-30.7-29zm48.2 0c0-10.7-7.5-18-17.5-18s-17.5 7.3-17.5 18c0 10.6 7.5 18 17.5 18s17.5-7.4 17.5-18zm61.5-28h13v56h-10.7l-28-34v34h-12.7v-56h10.7l27.9 34v-34zm37.8 56V55.2h-18V44.7h48.9v10.5h-18v45.5h-13zm50.8-10.4H433v10.4h-43.4v-56H432V55h-29.4v12.1h26v10.1h-26v13zM482 44.7h12.8v56h-10.6l-28-34v34h-12.8v-56h10.7l28 34v-34zm68 56-5-12h-26l-5 12h-13.2l25-56h12.8l25 56H550zM523.2 79H541l-9-21.5-8.8 21.5zm95-34.3-21.8 36.2v19.8h-13v-20l-21.7-36h13.8l15 24.9 15-25h12.7zm-349.8 90.8c0-16 12.4-27.5 29-27.5 9.2 0 16.8 3.3 21.9 9.4l-8 7.3c-3.5-4.1-8-6.2-13.3-6.2-10 0-17 7-17 17s7 17 17 17a17 17 0 0 0 13.4-6.3l7.9 7.4c-5 6.1-12.7 9.5-22 9.5-16.5 0-28.9-11.5-28.9-27.6zm54.6 0c0-15.8 12.4-27.5 29.2-27.5 16.8 0 29.2 11.6 29.2 27.5s-12.4 27.6-29.2 27.6c-16.8 0-29.1-11.8-29.1-27.6zm45.9 0c0-10.1-7.2-17-16.7-17s-16.6 6.9-16.6 17 7.1 17 16.6 17c9.5 0 16.7-6.9 16.7-17zm81.8 26.7h-11.6v-32l-15.7 26.3h-5.6L402.2 131v31.3h-11.5V109h10.2l19.9 33 19.6-33h10.2l.1 53.3zm23.7 0v-43.3h-17v-10h46.3v10h-17v43.3h-12.3zm48.2-9.9h29v9.9h-41.2v-53.3h40.2v9.9h-28v11.5h24.8v9.6h-24.8v12.4zM197.5 151v-37.7h4v34.3h21.2v3.5h-25.2zm35.8-3.4H256v3.5h-26.7v-37.8h25.9v3.5h-22v13.4h19.6v3.4h-19.5v14zm-9.5-144h3.3l-13.7 31H210l-13.7-31h3.5l11.9 27 12-27zm6.2.4c0-1.2 1-2.2 2.4-2.2a2.2 2.2 0 1 1 0 4.5c-1.3 0-2.3-1-2.3-2.3zm.8 30.7V11.4h3.1v23.3h-3.1zm11.9 0v-33h3.1v33h-3.1zm11.9 0v-33h3.2v33h-3.2zM286.8 24h-19.5c.4 4.9 4.1 8 9.2 8 2.8 0 5.4-1 7.1-3l1.8 2a11 11 0 0 1-9 3.9c-7.3 0-12.2-5-12.2-11.9s4.8-11.8 11.4-11.8S286.9 16 286.9 23v1zm-19.5-2.4h16.5a8.1 8.1 0 0 0-8.2-7.7 8.1 8.1 0 0 0-8.3 7.7zM323 1.8h3.2v32.9h-3V30c-2 3.1-5.2 4.8-9 4.8-6.7 0-11.7-4.8-11.7-11.9s5-11.8 11.7-11.8a10 10 0 0 1 8.8 4.6v-14zm0 21.2c0-5.4-3.7-9-8.6-9-5 0-8.7 3.6-8.7 9 0 5.5 3.8 9 8.7 9 5 0 8.7-3.5 8.7-9zm32.2 1h-19.5c.4 4.9 4.1 8 9.2 8 2.8 0 5.4-1 7.1-3l1.8 2a11 11 0 0 1-9 3.9c-7.2 0-12.2-5-12.2-11.9s4.8-11.8 11.4-11.8c6.5 0 11.3 4.8 11.3 11.8v1zm-19.5-2.4h16.6A8.1 8.1 0 0 0 344 14a8.1 8.1 0 0 0-8.3 7.7z"/>
<path fill-rule="evenodd" clip-rule="evenodd" d="m2.6 143 4.6-1.4c29.5-9 88.7 6.6 138.1-5.4 1.8-.5 2-2-.4-1.2-6.3 1.8-13.4 2.9-21 3.4v-28c0-5.7-8.4-13.4-13-12.8L98.4 99c3.5.8 10.2 2.6 10.2 6v33.7c-5.7 0-11.5-.3-17.4-.7v-37.6c-.4 0-14.3 1-14 8V137l-14-1.4v-30.5c-.3 0-14.2 1-14 8.1v21l-9.5-.8v-21.1a116.7 116.7 0 0 1 .4-7.4l.6-.9 1-1 1.5-.9 1.6-.7a40.5 40.5 0 0 1 9.3-2V65.2c0-7.3 3.9-11.4 12.9-11.3a69952.8 69952.8 0 0 1 0-34.3 6.6 6.6 0 0 1 1-3 11.4 11.4 0 0 1 2.6-3 18.2 18.2 0 0 1 2.3-1.6 3234.6 3234.6 0 0 0-11.9.3 11.3 11.3 0 0 0-2.2.7 7.3 7.3 0 0 0-2 1.4 10.2 10.2 0 0 0-1.7 3.2 14.5 14.5 0 0 0-.5 2.8v32.5h-.2a20.3 20.3 0 0 0-2.7.3 15.9 15.9 0 0 0-5.9 2.4 20.4 20.4 0 0 0-2.5 2.3l-.6.7a20 20 0 0 0-1.8 3.2 13.9 13.9 0 0 0-1 4.3v32h-.2l-1.5.5-2.7.9a28 28 0 0 0-4.5 2 15.2 15.2 0 0 0-4 3.5 10.8 10.8 0 0 0-2.3 5v22.6a49 49 0 0 0-22.9 3.5l.8 7zm1.6 13.7-.8-7.3 3.7-2c24.2-10.8 97 11.3 132.8-2 4.2-2.3 8.7 4 .6 6.4-33.6 9.8-106.4-12.2-136.3 5zm31.9-55.1a9.1 9.1 0 0 0-5.9 8v23.2l-2.1-.1V109c0-2.7 3.4-6.4 8-7.4zM55.4 55c-2.3 1.7-4.4 5-4.4 7.4v36l-2.2.2V62.4c0-3.7 2.7-6.7 6.6-7.3zm-4.3 0c-4 1.6-5.9 6.3-5.9 9l.4 35-2.5.2V63.4c0-3 3.4-7 8-8.2zm17.6-42a10.7 10.7 0 0 0-4.4 7.4v31.3l-2.2.2V20.4c0-3.8 2.6-7.4 6.6-7.4zm-3.5 0a7.3 7.3 0 0 0-5.9 7.3v32l-2.1.3V20.3c0-5.6 3.5-7.3 8-7.3zM34.1 117.3v-9.2c0-3.4 2.7-6 6.6-6.6a8.1 8.1 0 0 0-4.5 6.6v25l-2.1-.1v-15.7zm60-95.6V48l-12.5 1.6V19.9c0-3-2.8-6.1-5.9-7.9h9c7.1 0 9.3 3.8 9.3 9.7zm-11.6 34c4.1-.3 10.2-1.5 13.8-1.7 5-.6 11.8 7.3 11.8 13.6v23.2l-13.2 2.1V64.2c0-3.5-5.6-7.6-12.4-7.6v-.9zm-17.3 44.7.1-26.2c-.2-10.4 9.3-10.7 16.3-12v30c-12.4.7-16.4 3.6-16.4 8.2z"/>
</g>
</svg>
